<?xml version="1.0" standalone="no"?>
<!DOCTYPE svg PUBLIC "-//W3C//DTD SVG 20010904//EN"
 "http://www.w3.org/TR/2001/REC-SVG-20010904/DTD/svg10.dtd">
<svg version="1.0" xmlns="http://www.w3.org/2000/svg"
 width="288.000000pt" height="288.000000pt" viewBox="0 0 288.000000 288.000000"
 preserveAspectRatio="xMidYMid meet">
<metadata>
Created by potrace 1.11, written by Peter Selinger 2001-2013
</metadata>
<g transform="translate(0.000000,288.000000) scale(0.100000,-0.100000)"
fill="#000000" stroke="none">
<path d="M1081 2858 c6 -10 7 -29 4 -41 -5 -17 -4 -19 4 -7 9 12 11 13 11 1 0
-8 7 -22 16 -32 19 -21 25 -68 12 -93 -7 -13 -7 -16 1 -12 13 8 34 -31 25 -46
-4 -7 -3 -8 4 -4 23 14 12 -17 -14 -41 -29 -27 -24 -28 -116 18 -27 13 -48 28
-48 32 0 5 -5 5 -10 2 -13 -8 -41 20 -32 31 4 5 -1 3 -10 -4 -14 -11 -18 -10
-27 5 -9 17 -10 17 -17 -1 -10 -25 20 -78 72 -130 66 -66 93 -135 46 -120 -12
4 -13 3 -5 -3 10 -7 10 -15 0 -36 -6 -15 -14 -27 -17 -27 -3 0 -3 -30 -2 -66
3 -53 1 -65 -10 -58 -11 6 -11 5 0 -8 15 -19 8 -39 -29 -79 -39 -42 -38 -81 5
-145 29 -43 47 -57 130 -98 52 -26 98 -51 100 -55 3 -5 8 -28 11 -51 4 -35 1
-48 -16 -66 -12 -13 -26 -21 -30 -18 -5 3 -6 -2 -3 -10 6 -14 -5 -21 -28 -17
-5 0 -7 -2 -6 -7 3 -17 -23 -60 -65 -105 -43 -46 -45 -47 -78 -35 -19 6 -36
14 -39 17 -3 3 -16 7 -30 8 -54 4 -70 8 -70 15 0 4 5 8 11 8 5 0 7 5 3 11 -5
8 -9 8 -14 -1 -6 -9 -9 -9 -12 1 -3 10 -6 10 -12 1 -4 -7 -2 -12 3 -12 6 0 11
-4 11 -8 0 -5 -65 -12 -145 -15 -129 -5 -149 -8 -187 -30 -40 -23 -103 -43
-120 -39 -5 1 -8 -4 -8 -11 0 -10 -38 -54 -79 -92 -42 -38 -61 -69 -61 -101 0
-22 -8 -42 -22 -56 -21 -21 -22 -31 -23 -173 0 -138 2 -152 22 -181 13 -18 21
-44 21 -64 -1 -19 4 -36 10 -38 7 -2 12 -9 12 -17 0 -7 7 -18 15 -25 8 -7 15
-22 15 -34 0 -12 9 -32 20 -44 12 -12 18 -22 14 -22 -3 0 -1 -7 6 -15 6 -8 9
-19 5 -24 -3 -7 0 -8 9 -5 9 4 18 -1 22 -10 3 -9 11 -16 18 -16 6 0 17 -9 23
-19 10 -15 9 -20 -2 -25 -8 -3 -15 -11 -15 -18 0 -8 3 -9 8 -3 4 6 18 11 32
13 19 1 21 0 10 -7 -12 -8 -12 -12 3 -29 11 -12 26 -18 38 -15 14 4 22 0 25
-14 3 -12 17 -26 30 -32 13 -6 24 -17 24 -26 0 -8 12 -18 26 -21 19 -5 24 -11
21 -26 -4 -16 -3 -17 9 -7 10 8 14 8 14 0 0 -6 9 -11 20 -11 11 0 23 -7 26
-15 4 -8 14 -15 24 -15 10 0 20 -7 24 -15 3 -8 15 -15 26 -15 11 0 20 -4 20
-9 0 -5 14 -12 30 -16 16 -4 30 -13 30 -21 0 -8 7 -14 16 -14 8 0 13 -3 11 -7
-3 -5 11 -8 30 -9 21 0 41 -8 48 -17 7 -9 22 -17 34 -17 11 0 21 -3 21 -7 0
-5 14 -9 30 -10 51 -3 60 -6 60 -19 0 -8 25 -14 70 -19 39 -4 73 -11 76 -16 3
-5 22 -9 42 -9 53 0 87 -11 70 -21 -10 -7 -10 -9 2 -9 9 0 22 6 29 13 11 10
12 9 6 -2 -6 -10 -4 -12 6 -5 17 11 40 15 35 6 -2 -4 44 -6 102 -6 152 3 154
3 147 14 -4 6 -3 10 2 9 25 -4 43 3 43 19 0 9 7 25 14 35 14 19 42 24 30 5 -4
-7 -3 -8 5 -4 9 6 9 11 0 22 -10 12 -8 21 11 46 12 17 18 28 12 24 -18 -11
-22 9 -6 38 7 16 14 34 14 41 0 7 5 15 10 17 7 2 11 62 11 163 0 107 4 164 12
174 7 9 8 12 1 8 -7 -4 -11 19 -11 73 0 72 2 79 16 67 14 -11 14 -9 0 13 -16
25 -18 130 -7 320 3 52 -7 48 156 54 56 2 106 6 109 10 3 3 18 6 32 6 14 1 37
7 51 15 14 8 35 14 48 15 12 0 22 5 22 11 0 7 10 9 25 7 14 -3 28 -1 32 5 3 6
1 7 -5 3 -19 -11 -14 2 9 25 13 13 27 18 42 14 17 -5 19 -4 7 4 -12 8 -9 12
13 20 15 6 27 15 27 20 0 6 8 8 18 4 9 -3 14 -3 10 1 -6 7 2 18 50 69 9 10 18
23 18 28 1 5 2 14 3 19 0 6 12 16 26 22 14 6 25 16 25 22 0 6 10 22 23 36 13
14 22 31 19 38 -2 6 3 15 12 18 9 3 16 12 16 20 0 8 5 14 10 14 6 0 10 8 10
18 0 10 7 27 15 38 8 10 15 31 15 47 0 15 4 27 9 27 5 0 7 14 6 30 -2 22 2 30
14 31 9 0 11 3 4 5 -15 6 -5 34 11 34 7 0 13 7 13 15 0 11 -4 12 -14 4 -10 -9
-13 -4 -13 26 0 34 2 36 17 24 15 -13 15 -12 4 9 -10 19 -9 22 6 23 11 0 13 3
6 6 -7 2 -13 20 -13 38 0 19 -5 37 -10 40 -10 6 -8 23 8 64 3 8 1 12 -5 8 -7
-5 -8 4 -3 27 4 19 4 38 -1 43 -4 4 -10 22 -13 38 -2 17 -5 31 -6 33 -2 1 -3
5 -5 10 -1 4 -5 15 -10 26 -4 10 -8 31 -9 46 -1 16 -3 28 -6 27 -3 -1 -6 2 -7
7 -1 5 -6 12 -13 16 -6 4 -12 16 -13 28 0 11 -5 18 -9 16 -4 -3 -8 -1 -8 4 0
4 -14 23 -31 40 -17 18 -27 32 -23 32 5 0 1 5 -8 11 -10 5 -18 15 -18 20 0 6
5 7 12 3 7 -5 8 -3 4 5 -5 7 -11 10 -14 7 -3 -3 -11 -1 -19 5 -10 9 -13 8 -13
0 0 -7 -5 -9 -10 -6 -6 4 -8 11 -5 16 3 5 -2 6 -11 2 -12 -4 -15 -3 -10 5 4 8
2 10 -8 6 -8 -3 -25 0 -37 7 -28 15 -97 13 -116 -2 -11 -10 -12 -8 -8 7 4 10
-1 7 -9 -7 -8 -15 -21 -29 -28 -32 -8 -2 -15 -20 -16 -38 -1 -18 -8 -39 -14
-46 -9 -11 -8 -13 1 -11 7 2 17 -8 23 -22 7 -20 7 -23 -3 -12 -7 6 -22 12 -34
11 -17 -1 -16 -2 5 -8 14 -4 34 -23 47 -46 13 -22 23 -36 23 -32 0 4 6 2 14
-5 11 -10 11 -16 2 -27 -9 -12 -8 -13 2 -7 9 5 24 -1 42 -19 16 -15 33 -24 39
-21 6 4 19 -2 31 -14 11 -11 23 -20 26 -20 12 0 54 -51 54 -65 0 -7 4 -15 9
-17 5 -1 11 -10 13 -18 2 -8 11 -21 20 -28 9 -7 15 -19 12 -26 -3 -8 -1 -23 5
-34 7 -13 7 -22 -1 -30 -7 -7 -9 -12 -5 -12 4 0 3 -10 -4 -21 -6 -12 -7 -19
-1 -15 11 7 9 -44 -3 -64 -5 -9 -4 -11 3 -6 15 9 15 3 1 -28 -7 -14 -15 -23
-19 -21 -5 3 -7 -8 -6 -24 1 -17 -2 -27 -8 -24 -5 4 -7 -1 -3 -9 3 -10 -4 -25
-21 -40 -15 -12 -29 -32 -30 -43 -2 -11 -8 -22 -13 -23 -6 -2 -4 -11 3 -20 11
-13 11 -14 0 -8 -9 5 -13 3 -11 -5 3 -27 -1 -37 -31 -70 -16 -19 -30 -38 -30
-42 0 -5 -4 -6 -9 -3 -5 3 -11 -4 -14 -15 -3 -11 -15 -23 -26 -26 -12 -3 -21
-10 -21 -15 0 -6 -8 -4 -17 3 -10 7 -15 10 -11 5 9 -11 -9 -46 -23 -46 -6 0
-7 5 -3 12 4 7 3 8 -4 4 -7 -4 -12 -14 -12 -22 0 -8 -4 -13 -9 -9 -5 3 -12 1
-16 -5 -3 -5 0 -10 7 -11 7 -1 2 -4 -12 -8 -31 -10 -44 -3 -30 14 11 13 8 13
-29 6 -2 -1 2 -7 8 -14 18 -23 -10 -49 -59 -54 -24 -2 -52 -9 -61 -14 -11 -5
-27 -5 -41 0 -13 5 -45 7 -70 5 l-45 -3 -2 57 c-3 102 -6 130 -13 126 -3 -2
-9 0 -13 6 -3 5 -1 10 5 10 6 0 4 10 -5 24 -17 25 -6 44 17 30 7 -5 8 -3 4 5
-5 7 -14 10 -22 7 -8 -3 -14 0 -15 7 0 7 -2 19 -5 27 -17 66 -17 73 1 66 18
-6 18 -6 2 12 -22 24 -22 38 1 47 15 6 15 8 2 18 -9 7 -22 27 -29 44 -7 18
-17 31 -21 28 -12 -7 -17 15 -15 57 1 21 -2 35 -6 32 -5 -3 -9 0 -9 5 0 6 -13
23 -30 38 -28 25 -43 62 -19 47 8 -5 8 -1 0 14 -8 15 -8 23 0 27 10 7 5 116
-7 136 -3 5 0 17 8 26 10 13 10 15 0 9 -10 -6 -12 1 -8 33 2 22 7 44 10 50 4
5 1 13 -5 17 -7 4 -9 3 -5 -4 3 -6 3 -13 -2 -16 -4 -2 -8 4 -9 14 -1 11 3 22
8 26 6 4 3 14 -8 27 -10 11 -12 17 -6 13 9 -5 11 -2 7 8 -6 15 -17 20 -36 17
-11 -2 -10 13 2 25 7 7 1 9 -19 6 -26 -3 -32 1 -56 42 -15 25 -29 46 -32 46
-2 0 -1 -5 3 -12 4 -6 -5 -3 -19 8 -33 23 -34 42 -4 55 21 9 21 9 1 6 -21 -4
-58 26 -59 48 0 6 -9 9 -19 7 -14 -3 -17 1 -12 13 3 9 2 13 -4 10 -6 -3 -10
-1 -10 4 0 6 -6 11 -14 11 -8 0 -16 7 -20 15 -3 8 -12 15 -20 15 -8 0 -13 8
-11 18 1 9 9 16 18 16 9 -1 13 4 10 13 -5 12 -8 12 -23 -2 -20 -18 -32 -19
-49 -2 -6 6 -17 12 -23 12 -6 0 -18 14 -27 30 -9 17 -22 30 -28 31 -30 2 -34
5 -27 17 5 8 2 8 -9 -2 -12 -9 -17 -10 -17 -2 0 7 -15 11 -39 9 -35 -2 -39 -4
-30 -20z m-221 -1425 c14 -6 28 -8 63 -12 20 -2 56 -38 53 -54 -2 -19 -32 -48
-40 -40 -4 4 -18 -5 -32 -20 -14 -15 -30 -27 -35 -27 -6 0 -24 -9 -39 -20 -27
-19 -29 -20 -39 -3 -6 10 -11 13 -11 6 0 -6 5 -15 10 -18 17 -10 11 -25 -10
-25 -11 0 -20 -4 -20 -9 0 -18 -67 -84 -78 -77 -6 3 -13 2 -17 -4 -4 -6 -10
-8 -15 -5 -4 3 -11 -2 -14 -11 -3 -8 -11 -12 -17 -8 -8 4 -9 3 -5 -4 4 -6 -2
-20 -14 -32 -11 -11 -20 -17 -20 -13 0 4 -7 -3 -16 -15 -10 -14 -22 -21 -31
-17 -14 5 -14 3 -2 -12 9 -11 10 -14 2 -9 -7 4 -13 2 -13 -3 0 -6 -5 -11 -11
-11 -6 0 -9 7 -5 15 3 9 0 15 -9 15 -18 0 -19 -12 -4 -27 8 -8 7 -17 -2 -34
-14 -25 -16 -31 -18 -54 0 -8 -11 -23 -22 -34 -12 -11 -22 -30 -23 -43 -2 -34
-33 -35 -62 -1 -13 15 -19 30 -13 32 5 1 2 10 -8 18 -10 8 -11 11 -3 7 10 -5
9 -1 -4 14 -10 12 -16 28 -13 36 3 8 0 17 -7 19 -8 3 -12 16 -9 34 7 49 6 127
-2 146 -5 11 -3 17 6 17 11 0 11 2 -1 10 -12 7 -13 13 -3 27 6 10 16 17 22 16
6 -2 8 4 5 12 -4 10 0 15 11 15 9 0 14 4 10 9 -5 9 12 26 27 26 3 0 10 4 15 9
5 5 2 6 -7 2 -8 -4 -1 4 15 18 32 28 51 34 39 14 -4 -8 -3 -10 2 -5 5 5 9 12
8 15 -1 12 27 35 33 28 4 -3 15 1 24 10 10 9 29 18 41 19 40 5 53 10 65 25 7
8 13 11 13 5 0 -5 5 -3 10 5 9 13 10 13 10 0 0 -13 2 -13 9 -1 5 8 24 16 42
17 17 2 36 7 41 12 10 10 92 6 118 -5z"/>
<path d="M897 1385 c3 -8 9 -12 14 -9 12 7 11 11 -5 17 -10 4 -13 1 -9 -8z"/>
<path d="M476 1308 c3 -4 9 -8 15 -8 5 0 9 4 9 8 0 5 -7 9 -15 9 -8 0 -12 -4
-9 -9z"/>
<path d="M440 939 c0 -5 5 -7 10 -4 6 3 10 8 10 11 0 2 -4 4 -10 4 -5 0 -10
-5 -10 -11z"/>
<path d="M425 901 c-3 -5 -2 -12 3 -15 5 -3 9 1 9 9 0 17 -3 19 -12 6z"/>
<path d="M1263 2835 c0 -8 4 -12 9 -9 5 3 6 10 3 15 -9 13 -12 11 -12 -6z"/>
<path d="M2315 2629 c-4 -6 -5 -12 -2 -15 2 -3 7 2 10 11 7 17 1 20 -8 4z"/>
<path d="M2370 2629 c0 -5 5 -7 10 -4 6 3 10 8 10 11 0 2 -4 4 -10 4 -5 0 -10
-5 -10 -11z"/>
<path d="M902 2566 c7 -8 15 -12 17 -11 5 6 -10 25 -20 25 -5 0 -4 -6 3 -14z"/>
<path d="M2166 2552 c-2 -4 -1 -14 3 -21 6 -10 10 -9 14 3 6 16 -8 32 -17 18z"/>
<path d="M1570 2500 c6 -11 13 -20 16 -20 2 0 0 9 -6 20 -6 11 -13 20 -16 20
-2 0 0 -9 6 -20z"/>
<path d="M2327 2249 c7 -7 15 -10 18 -7 3 3 -2 9 -12 12 -14 6 -15 5 -6 -5z"/>
<path d="M1749 1938 c-5 -18 -6 -38 -1 -34 7 8 12 36 6 36 -2 0 -4 -1 -5 -2z"/>
<path d="M2704 1845 c3 -23 12 -26 13 -5 1 11 -2 20 -7 20 -4 0 -7 -7 -6 -15z"/>
<path d="M1796 1821 c-3 -5 1 -11 9 -14 9 -4 12 -1 8 9 -6 16 -10 17 -17 5z"/>
<path d="M1813 1647 c0 -8 6 -14 14 -14 9 0 10 4 2 14 -6 7 -12 13 -14 13 -1
0 -2 -6 -2 -13z"/>
<path d="M2599 1613 c-13 -16 -12 -17 4 -4 9 7 17 15 17 17 0 8 -8 3 -21 -13z"/>
<path d="M2240 1530 c0 -5 5 -10 10 -10 6 0 10 5 10 10 0 6 -4 10 -10 10 -5 0
-10 -4 -10 -10z"/>
<path d="M2520 1490 c0 -5 5 -10 11 -10 5 0 7 5 4 10 -3 6 -8 10 -11 10 -2 0
-4 -4 -4 -10z"/>
<path d="M2356 1292 c-3 -5 1 -9 9 -9 8 0 15 4 15 9 0 4 -4 8 -9 8 -6 0 -12
-4 -15 -8z"/>
<path d="M2156 1212 c-3 -5 1 -9 9 -9 8 0 12 4 9 9 -3 4 -7 8 -9 8 -2 0 -6 -4
-9 -8z"/>
<path d="M2066 1177 c3 -10 9 -15 12 -12 3 3 0 11 -7 18 -10 9 -11 8 -5 -6z"/>
<path d="M1845 1130 c3 -5 8 -10 11 -10 2 0 4 5 4 10 0 6 -5 10 -11 10 -5 0
-7 -4 -4 -10z"/>
<path d="M1885 1130 c3 -5 8 -10 11 -10 2 0 4 5 4 10 0 6 -5 10 -11 10 -5 0
-7 -4 -4 -10z"/>
<path d="M160 840 c0 -5 5 -10 10 -10 6 0 10 5 10 10 0 6 -4 10 -10 10 -5 0
-10 -4 -10 -10z"/>
<path d="M160 809 c0 -5 5 -7 10 -4 6 3 10 8 10 11 0 2 -4 4 -10 4 -5 0 -10
-5 -10 -11z"/>
</g>
</svg>
